<svg width="51" height="51" viewBox="0 0 51 51" fill="none" xmlns="http://www.w3.org/2000/svg">
    <path d="M30.8125 31.875L37.1875 25.5L30.8125 19.125M20.1875 19.125L13.8125 25.5L20.1875 31.875M16.575 44.625H34.425C37.9953 44.625 39.7805 44.625 41.1442 43.9302C42.3437 43.319 43.319 42.3437 43.9302 41.1442C44.625 39.7805 44.625 37.9953 44.625 34.425V16.575C44.625 13.0047 44.625 11.2195 43.9302 9.85581C43.319 8.65628 42.3437 7.68103 41.1442 7.06983C39.7805 6.375 37.9953 6.375 34.425 6.375H16.575C13.0047 6.375 11.2195 6.375 9.85581 7.06983C8.65628 7.68103 7.68103 8.65628 7.06983 9.85581C6.375 11.2195 6.375 13.0047 6.375 16.575V34.425C6.375 37.9953 6.375 39.7805 7.06983 41.1442C7.68103 42.3437 8.65628 43.319 9.85581 43.9302C11.2195 44.625 13.0047 44.625 16.575 44.625Z" stroke="#5559F2" stroke-width="2" stroke-linecap="round" stroke-linejoin="round"/>
</svg>
