<svg width="51" height="51" viewBox="0 0 51 51" fill="none" xmlns="http://www.w3.org/2000/svg">
    <path d="M12.75 36.125C12.75 38.1012 12.75 39.0893 12.9672 39.9C13.5567 42.0999 15.2751 43.8183 17.475 44.4078C18.2857 44.625 19.2738 44.625 21.25 44.625H34.425C37.9953 44.625 39.7805 44.625 41.1442 43.9302C42.3437 43.319 43.319 42.3437 43.9302 41.1442C44.625 39.7805 44.625 37.9953 44.625 34.425V16.575C44.625 13.0047 44.625 11.2195 43.9302 9.85581C43.319 8.65628 42.3437 7.68103 41.1442 7.06983C39.7805 6.375 37.9953 6.375 34.425 6.375H21.25C19.2738 6.375 18.2857 6.375 17.475 6.59222C15.2751 7.1817 13.5567 8.90007 12.9672 11.1C12.75 11.9107 12.75 12.8988 12.75 14.875M25.5 17L34 25.5M34 25.5L25.5 34M34 25.5H6.375" stroke="#5559F2" stroke-width="2" stroke-linecap="round" stroke-linejoin="round"/>
</svg>
