<svg width="51" height="51" viewBox="0 0 51 51" fill="none" xmlns="http://www.w3.org/2000/svg">
    <path d="M29.75 4.82275V13.6002C29.75 14.7903 29.75 15.3853 29.9816 15.8399C30.1853 16.2397 30.5104 16.5648 30.9103 16.7685C31.3648 17.0002 31.9599 17.0002 33.15 17.0002H41.9274M29.75 37.1875L35.0625 31.875L29.75 26.5625M21.25 26.5625L15.9375 31.875L21.25 37.1875M42.5 21.225V36.55C42.5 40.1203 42.5 41.9055 41.8052 43.2692C41.194 44.4687 40.2187 45.444 39.0192 46.0552C37.6555 46.75 35.8703 46.75 32.3 46.75H18.7C15.1297 46.75 13.3445 46.75 11.9808 46.0552C10.7813 45.444 9.80603 44.4687 9.19483 43.2692C8.5 41.9055 8.5 40.1203 8.5 36.55V14.45C8.5 10.8797 8.5 9.0945 9.19483 7.73081C9.80603 6.53128 10.7813 5.55603 11.9808 4.94483C13.3445 4.25 15.1297 4.25 18.7 4.25H25.525C27.0843 4.25 27.8639 4.25 28.5976 4.42614C29.2481 4.58231 29.8699 4.83989 30.4403 5.18942C31.0837 5.58366 31.6349 6.13494 32.7375 7.23751L39.5125 14.0125C40.6151 15.1151 41.1663 15.6663 41.5606 16.3097C41.9101 16.8801 42.1677 17.5019 42.3239 18.1524C42.5 18.8861 42.5 19.6657 42.5 21.225Z" stroke="#5559F2" stroke-width="2" stroke-linecap="round" stroke-linejoin="round"/>
</svg>
