<svg width="201" height="201" viewBox="0 0 201 201" fill="none" xmlns="http://www.w3.org/2000/svg">
    <path d="M37.6875 184.25V142.375M37.6875 58.625V16.75M16.75 37.6875H58.625M16.75 163.312H58.625M108.875 25.125L94.3513 62.8867C91.9894 69.0275 90.8085 72.0979 88.9721 74.6806C87.3445 76.9696 85.3446 78.9695 83.0556 80.5971C80.4729 82.4335 77.4025 83.6144 71.2617 85.9763L33.5 100.5L71.2617 115.024C77.4025 117.386 80.4729 118.567 83.0556 120.403C85.3446 122.031 87.3445 124.03 88.9721 126.319C90.8085 128.902 91.9894 131.972 94.3513 138.113L108.875 175.875L123.399 138.113C125.761 131.972 126.942 128.902 128.778 126.319C130.406 124.03 132.405 122.031 134.694 120.403C137.277 118.567 140.347 117.386 146.488 115.024L184.25 100.5L146.488 85.9763C140.347 83.6144 137.277 82.4335 134.694 80.5971C132.405 78.9695 130.406 76.9696 128.778 74.6806C126.942 72.0979 125.761 69.0275 123.399 62.8867L108.875 25.125Z" stroke="#767AF5" stroke-width="4" stroke-linecap="round" stroke-linejoin="round"/>
</svg>
