<svg width="51" height="51" viewBox="0 0 51 51" fill="none" xmlns="http://www.w3.org/2000/svg">
    <path d="M20.1875 19.0513C20.1875 18.0371 20.1875 17.53 20.3995 17.2469C20.5842 17.0002 20.8669 16.8458 21.1743 16.8238C21.5271 16.7986 21.9536 17.0729 22.8068 17.6213L32.8381 24.07C33.5784 24.5459 33.9485 24.7839 34.0764 25.0865C34.1881 25.3508 34.1881 25.6492 34.0764 25.9135C33.9485 26.2161 33.5784 26.4541 32.8381 26.93L22.8068 33.3787C21.9536 33.9271 21.5271 34.2014 21.1743 34.1762C20.8669 34.1542 20.5842 33.9998 20.3995 33.7531C20.1875 33.47 20.1875 32.9629 20.1875 31.9487V19.0513Z" stroke="#5559F2" stroke-width="2" stroke-linecap="round" stroke-linejoin="round"/>
    <path d="M6.375 16.575C6.375 13.0047 6.375 11.2195 7.06983 9.85581C7.68103 8.65628 8.65628 7.68103 9.85581 7.06983C11.2195 6.375 13.0047 6.375 16.575 6.375H34.425C37.9953 6.375 39.7805 6.375 41.1442 7.06983C42.3437 7.68103 43.319 8.65628 43.9302 9.85581C44.625 11.2195 44.625 13.0047 44.625 16.575V34.425C44.625 37.9953 44.625 39.7805 43.9302 41.1442C43.319 42.3437 42.3437 43.319 41.1442 43.9302C39.7805 44.625 37.9953 44.625 34.425 44.625H16.575C13.0047 44.625 11.2195 44.625 9.85581 43.9302C8.65628 43.319 7.68103 42.3437 7.06983 41.1442C6.375 39.7805 6.375 37.9953 6.375 34.425V16.575Z" stroke="#5559F2" stroke-width="2" stroke-linecap="round" stroke-linejoin="round"/>
</svg>
