<svg width="51" height="51" viewBox="0 0 51 51" fill="none" xmlns="http://www.w3.org/2000/svg">
    <path d="M8.5 38.25V37.825C8.5 34.2547 8.5 32.4695 9.19483 31.1058C9.80603 29.9063 10.7813 28.931 11.9808 28.3198C13.3445 27.625 15.1297 27.625 18.7 27.625H32.3C35.8703 27.625 37.6555 27.625 39.0192 28.3198C40.2187 28.931 41.194 29.9063 41.8052 31.1058C42.5 32.4695 42.5 34.2547 42.5 37.825V38.25M8.5 38.25C6.15279 38.25 4.25 40.1528 4.25 42.5C4.25 44.8472 6.15279 46.75 8.5 46.75C10.8472 46.75 12.75 44.8472 12.75 42.5C12.75 40.1528 10.8472 38.25 8.5 38.25ZM42.5 38.25C40.1528 38.25 38.25 40.1528 38.25 42.5C38.25 44.8472 40.1528 46.75 42.5 46.75C44.8472 46.75 46.75 44.8472 46.75 42.5C46.75 40.1528 44.8472 38.25 42.5 38.25ZM25.5 38.25C23.1528 38.25 21.25 40.1528 21.25 42.5C21.25 44.8472 23.1528 46.75 25.5 46.75C27.8472 46.75 29.75 44.8472 29.75 42.5C29.75 40.1528 27.8472 38.25 25.5 38.25ZM25.5 38.25V17M12.75 17H38.25C40.2303 17 41.2204 17 42.0014 16.6765C43.0428 16.2451 43.8701 15.4178 44.3015 14.3764C44.625 13.5954 44.625 12.6053 44.625 10.625C44.625 8.64475 44.625 7.65462 44.3015 6.8736C43.8701 5.83223 43.0428 5.00486 42.0014 4.57351C41.2204 4.25 40.2303 4.25 38.25 4.25H12.75C10.7697 4.25 9.77962 4.25 8.9986 4.57351C7.95723 5.00486 7.12986 5.83223 6.69851 6.8736C6.375 7.65462 6.375 8.64475 6.375 10.625C6.375 12.6053 6.375 13.5954 6.69851 14.3764C7.12986 15.4178 7.95723 16.2451 8.9986 16.6765C9.77962 17 10.7697 17 12.75 17Z" stroke="#5559F2" stroke-width="2" stroke-linecap="round" stroke-linejoin="round"/>
</svg>
