<svg width="51" height="51" viewBox="0 0 51 51" fill="none" xmlns="http://www.w3.org/2000/svg">
    <path d="M30.5 8H20.525M17.425 46.75H33.575C35.9552 46.75 37.1453 46.75 38.0545 46.2868C38.8541 45.8793 39.5043 45.2292 39.9118 44.4295C40.375 43.5203 40.375 42.3302 40.375 39.95V11.05C40.375 8.66978 40.375 7.47967 39.9118 6.57054C39.5043 5.77085 38.8541 5.12068 38.0545 4.71322C37.1453 4.25 35.9552 4.25 33.575 4.25H17.425C15.0448 4.25 13.8547 4.25 12.9455 4.71322C12.1459 5.12068 11.4957 5.77085 11.0882 6.57054C10.625 7.47967 10.625 8.66978 10.625 11.05V39.95C10.625 42.3302 10.625 43.5203 11.0882 44.4295C11.4957 45.2292 12.1459 45.8793 12.9455 46.2868C13.8547 46.75 15.0448 46.75 17.425 46.75Z" stroke="#5559F2" stroke-width="2" stroke-linecap="round" stroke-linejoin="round"/>
</svg>
