<svg width="51" height="51" viewBox="0 0 51 51" fill="none" xmlns="http://www.w3.org/2000/svg">
    <path d="M6.375 34V15.3C6.375 12.9198 6.375 11.7297 6.83822 10.8205C7.24568 10.0209 7.89585 9.37068 8.69554 8.96322C9.60467 8.5 10.7948 8.5 13.175 8.5H37.825C40.2052 8.5 41.3953 8.5 42.3045 8.96322C43.1042 9.37068 43.7543 10.0209 44.1618 10.8205C44.625 11.7297 44.625 12.9198 44.625 15.3V34H33.2833C32.7636 34 32.5037 34 32.2591 34.0587C32.0423 34.1108 31.835 34.1966 31.6449 34.3131C31.4304 34.4446 31.2467 34.6283 30.8792 34.9958L30.7458 35.1292C30.3783 35.4967 30.1946 35.6804 29.9801 35.8119C29.79 35.9284 29.5827 36.0142 29.3659 36.0663C29.1213 36.125 28.8614 36.125 28.3417 36.125H22.6583C22.1386 36.125 21.8787 36.125 21.6341 36.0663C21.4173 36.0142 21.21 35.9284 21.0199 35.8119C20.8054 35.6804 20.6217 35.4967 20.2542 35.1292L20.1208 34.9958C19.7533 34.6283 19.5696 34.4446 19.3551 34.3131C19.165 34.1966 18.9577 34.1108 18.7409 34.0587C18.4963 34 18.2364 34 17.7167 34H6.375ZM6.375 34C5.20139 34 4.25 34.9514 4.25 36.125V36.8333C4.25 38.1508 4.25 38.8095 4.39482 39.35C4.7878 40.8166 5.93338 41.9622 7.40002 42.3552C7.94048 42.5 8.59921 42.5 9.91667 42.5H41.0833C42.4008 42.5 43.0595 42.5 43.6 42.3552C45.0666 41.9622 46.2122 40.8166 46.6052 39.35C46.75 38.8095 46.75 38.1508 46.75 36.8333C46.75 36.1746 46.75 35.8452 46.6776 35.575C46.4811 34.8417 45.9083 34.2689 45.175 34.0724C44.9048 34 44.5754 34 43.9167 34H42.5" stroke="#5559F2" stroke-width="2" stroke-linecap="round" stroke-linejoin="round"/>
</svg>
