<svg width="1015" height="1038" viewBox="0 0 1015 1038" fill="none" xmlns="http://www.w3.org/2000/svg">
    <path fill-rule="evenodd" clip-rule="evenodd" d="M510.068 68.885L236.773 539.206C226.917 556.156 202.42 556.124 192.627 539.142L175.084 508.69C170.522 500.773 170.522 491.005 175.116 483.089L448.474 12.7044C458.331 -4.27745 482.891 -4.21361 492.652 12.8321L510.164 43.3484C514.693 51.2647 514.693 61.0006 510.1 68.885H510.068Z" fill="url(#paint0_linear_5456_178169)" fill-opacity="1"/>
    <path fill-rule="evenodd" clip-rule="evenodd" d="M192.34 615.687L82.773 804.243C78.1798 812.127 69.7271 816.979 60.6045 816.948L25.4538 816.82C5.83703 816.756 -6.37959 795.433 3.50854 778.451L113.075 589.895C117.669 582.011 126.121 577.159 135.244 577.191L170.395 577.318C190.011 577.382 202.228 598.705 192.34 615.687Z" fill="url(#paint1_linear_5456_178169)" fill-opacity="1"/>
    <path fill-rule="evenodd" clip-rule="evenodd" d="M213.583 817.491L248.734 817.619C257.857 817.651 266.309 812.799 270.871 804.914L603.75 232.128C608.343 224.243 608.375 214.508 603.814 206.591L586.302 176.075C576.541 159.029 551.981 158.965 542.124 175.947L191.606 779.122C181.75 796.104 193.935 817.396 213.552 817.491H213.583Z" fill="url(#paint2_linear_5456_178169)" fill-opacity="1"/>
    <path fill-rule="evenodd" clip-rule="evenodd" d="M401.681 818.225L436.832 818.353C445.954 818.385 454.407 813.533 459 805.649L697.4 395.371C701.993 387.486 702.025 377.751 697.464 369.834L679.952 339.318C670.192 322.272 645.631 322.208 635.775 339.19L379.704 779.857C369.848 796.839 382.032 818.13 401.649 818.225H401.681Z" fill="url(#paint3_linear_5456_178169)" fill-opacity="1"/>
    <path fill-rule="evenodd" clip-rule="evenodd" d="M553.033 831.599L570.608 861.988C580.433 878.97 604.898 878.97 614.754 862.02L823.33 503.071C833.186 486.089 821.001 464.798 801.385 464.702L766.234 464.574C757.111 464.542 748.659 469.394 744.065 477.279L553.065 805.967C548.472 813.883 548.44 823.651 553.065 831.599H553.033Z" fill="url(#paint4_linear_5456_178169)" fill-opacity="1"/>
    <path fill-rule="evenodd" clip-rule="evenodd" d="M708.436 1025.29L770.636 918.232C775.229 910.348 775.261 900.612 770.699 892.696L753.188 862.179C743.427 845.134 718.866 845.07 709.01 862.052L646.747 969.242C642.154 977.158 642.122 986.926 646.747 994.874L664.322 1025.26C674.147 1042.24 698.612 1042.24 708.468 1025.29H708.436Z" fill="url(#paint5_linear_5456_178169)" fill-opacity="1"/>
    <path fill-rule="evenodd" clip-rule="evenodd" d="M989.642 465.308L954.555 465.053C945.4 464.989 936.916 469.841 932.322 477.757L753.411 785.665C743.555 802.647 755.74 823.97 775.356 824.034L810.507 824.162C819.63 824.194 828.083 819.342 832.644 811.457L1011.49 503.677C1021.35 486.727 1009.23 465.468 989.61 465.308H989.642Z" fill="url(#paint6_linear_5456_178169)" fill-opacity="1"/>
    <defs>
        <linearGradient id="paint0_linear_5456_178169" x1="342.61" y1="0.0078125" x2="342.61" y2="551.898" gradientUnits="userSpaceOnUse">
            <stop stop-color="#fff" stop-opacity="1"/>
            <stop offset="1" stop-color="#fff" stop-opacity="1"/>
        </linearGradient>
        <linearGradient id="paint1_linear_5456_178169" x1="97.9242" y1="577.19" x2="97.9242" y2="816.948" gradientUnits="userSpaceOnUse">
            <stop stop-color="#fff" stop-opacity="1"/>
            <stop offset="1" stop-color="#fff" stop-opacity="1"/>
        </linearGradient>
        <linearGradient id="paint2_linear_5456_178169" x1="397.665" y1="163.251" x2="397.665" y2="817.619" gradientUnits="userSpaceOnUse">
            <stop stop-color="#fff" stop-opacity="1"/>
            <stop offset="1" stop-color="#fff" stop-opacity="1"/>
        </linearGradient>
        <linearGradient id="paint3_linear_5456_178169" x1="538.539" y1="326.494" x2="538.539" y2="818.353" gradientUnits="userSpaceOnUse">
            <stop stop-color="#fff" stop-opacity="1"/>
            <stop offset="1" stop-color="#fff" stop-opacity="1"/>
        </linearGradient>
        <linearGradient id="paint4_linear_5456_178169" x1="688.214" y1="464.574" x2="688.214" y2="874.728" gradientUnits="userSpaceOnUse">
            <stop stop-color="#fff" stop-opacity="1"/>
            <stop offset="1" stop-color="#fff" stop-opacity="1"/>
        </linearGradient>
        <linearGradient id="paint5_linear_5456_178169" x1="708.695" y1="849.355" x2="708.695" y2="1038" gradientUnits="userSpaceOnUse">
            <stop stop-color="#fff" stop-opacity="1"/>
            <stop offset="1" stop-color="#fff" stop-opacity="1"/>
        </linearGradient>
        <linearGradient id="paint6_linear_5456_178169" x1="882.456" y1="465.052" x2="882.456" y2="824.162" gradientUnits="userSpaceOnUse">
            <stop stop-color="#fff" stop-opacity="1"/>
            <stop offset="1" stop-color="#fff" stop-opacity="1"/>
        </linearGradient>
    </defs>
</svg>
