<svg width="117" height="120" viewBox="0 0 117 120" fill="none" xmlns="http://www.w3.org/2000/svg"><path d="M58.5 10C70.6937 23.6918 77.6234 41.4602 78 60C77.6234 78.5398 70.6937 96.3082 58.5 110M58.5 10C46.3063 23.6918 39.3766 41.4602 39 60C39.3766 78.5398 46.3063 96.3082 58.5 110M58.5 10C31.5761 10 9.75 32.3858 9.75 60C9.75 87.6142 31.5761 110 58.5 110M58.5 10C85.4239 10 107.25 32.3858 107.25 60C107.25 87.6142 85.4239 110 58.5 110M12.1876 45H104.813M12.1875 75H104.812" stroke="#5559F2" stroke-width="3" stroke-linecap="round" stroke-linejoin="round"></path></svg>