<svg width="117" height="120" viewBox="0 0 117 120" fill="none" xmlns="http://www.w3.org/2000/svg"><path d="M58.5 10C61.3844 10 64.2103 10.2569 66.9571 10.7497M58.5 10C31.5761 10 9.75 32.3858 9.75 60C9.75 87.6142 31.5761 110 58.5 110M58.5 10V110M86.4727 19.045C91.1246 22.3935 95.1799 26.5545 98.4427 31.327M106.519 51.3281C107 54.1447 107.25 57.0424 107.25 60C107.25 62.9576 107 65.8553 106.519 68.6718M98.4222 88.7031C95.1616 93.4648 91.1118 97.6166 86.4676 100.959M66.9474 109.252C64.2037 109.744 61.381 110 58.5 110" stroke="#5559F2" stroke-width="3" stroke-linecap="round" stroke-linejoin="round"></path></svg>