<svg width="98" height="100" viewBox="0 0 98 100" fill="none" xmlns="http://www.w3.org/2000/svg">
    <path d="M56.875 91.6667H27.625M27.625 91.6667C20.7994 91.6667 17.3865 91.6667 14.7795 90.3043C12.4863 89.1059 10.6218 87.1936 9.45336 84.8416C8.125 82.1677 8.125 78.6674 8.125 71.6667M27.625 91.6667H29.25C36.0756 91.6667 39.4885 91.6667 42.0955 90.3043C44.3887 89.1059 46.2532 87.1936 47.4216 84.8416C48.75 82.1677 48.75 78.6674 48.75 71.6667V70C48.75 62.9994 48.75 59.4991 47.4216 56.8252C46.2532 54.4731 44.3887 52.5609 42.0955 51.3625C39.4885 50 36.0756 50 29.25 50H27.625C20.7994 50 17.3865 50 14.7795 51.3625C12.4863 52.5609 10.6218 54.4731 9.45336 56.8252C8.125 59.4991 8.125 62.9994 8.125 70V71.6667M8.125 71.6667V41.6667M40.625 8.33337H56.875M89.375 41.6667V58.3334M73.125 91.6667C76.903 91.6667 78.792 91.6667 80.3419 91.2408C84.5477 90.0849 87.8328 86.7156 88.9597 82.4019C89.375 80.8124 89.375 78.8749 89.375 75M89.375 25C89.375 21.1252 89.375 19.1877 88.9597 17.5981C87.8328 13.2845 84.5477 9.91514 80.3419 8.7593C78.792 8.33337 76.903 8.33337 73.125 8.33337M24.375 8.33337C20.597 8.33337 18.708 8.33337 17.1581 8.7593C12.9523 9.91514 9.66722 13.2845 8.54028 17.5981C8.125 19.1877 8.125 21.1252 8.125 25" stroke="#5559F2" stroke-width="3" stroke-linecap="round" stroke-linejoin="round"/>
</svg>
