<svg width="117" height="120" viewBox="0 0 117 120" fill="none" xmlns="http://www.w3.org/2000/svg"><path d="M82.875 50V40C82.875 26.1929 71.9619 15 58.5 15C45.0381 15 34.125 26.1929 34.125 40V50M58.5 72.5V82.5M42.9 105H74.1C82.2908 105 86.3862 105 89.5146 103.365C92.2665 101.927 94.5038 99.6323 95.906 96.8099C97.5 93.6012 97.5 89.4008 97.5 81V74C97.5 65.5992 97.5 61.3988 95.906 58.1901C94.5038 55.3677 92.2665 53.073 89.5146 51.6349C86.3862 50 82.2908 50 74.1 50H42.9C34.7092 50 30.6138 50 27.4854 51.6349C24.7335 53.073 22.4962 55.3677 21.094 58.1901C19.5 61.3988 19.5 65.5992 19.5 74V81C19.5 89.4008 19.5 93.6012 21.094 96.8099C22.4962 99.6323 24.7335 101.927 27.4854 103.365C30.6138 105 34.7092 105 42.9 105Z" stroke="#5559F2" stroke-width="3" stroke-linecap="round" stroke-linejoin="round"></path></svg>