<svg width="51" height="51" viewBox="0 0 51 51" fill="none" xmlns="http://www.w3.org/2000/svg">
    <path d="M27.625 14.875L25.2545 10.1339C24.5722 8.76946 24.2311 8.08718 23.7222 7.58872C23.2721 7.14793 22.7297 6.81269 22.1342 6.60728C21.4607 6.375 20.6979 6.375 19.1724 6.375H11.05C8.66978 6.375 7.47967 6.375 6.57054 6.83822C5.77085 7.24568 5.12068 7.89585 4.71322 8.69554C4.25 9.60467 4.25 10.7948 4.25 13.175V14.875M4.25 14.875H36.55C40.1203 14.875 41.9055 14.875 43.2692 15.5698C44.4687 16.181 45.444 17.1563 46.0552 18.3558C46.75 19.7195 46.75 21.5047 46.75 25.075V34.425C46.75 37.9953 46.75 39.7805 46.0552 41.1442C45.444 42.3437 44.4687 43.319 43.2692 43.9302C41.9055 44.625 40.1203 44.625 36.55 44.625H14.45C10.8797 44.625 9.0945 44.625 7.73081 43.9302C6.53128 43.319 5.55603 42.3437 4.94483 41.1442C4.25 39.7805 4.25 37.9953 4.25 34.425V14.875ZM29.75 35.0625L35.0625 29.75L29.75 24.4375M21.25 24.4375L15.9375 29.75L21.25 35.0625" stroke="#5559F2" stroke-width="2" stroke-linecap="round" stroke-linejoin="round"/>
</svg>
