<svg width="51" height="51" viewBox="0 0 51 51" fill="none" xmlns="http://www.w3.org/2000/svg">
    <path d="M35.0625 29.75H35.0838M6.375 10.625V40.375C6.375 42.7222 8.27779 44.625 10.625 44.625H40.375C42.7222 44.625 44.625 42.7222 44.625 40.375V19.125C44.625 16.7778 42.7222 14.875 40.375 14.875L10.625 14.875C8.27779 14.875 6.375 12.9722 6.375 10.625ZM6.375 10.625C6.375 8.27779 8.27779 6.375 10.625 6.375H36.125M36.125 29.75C36.125 30.3368 35.6493 30.8125 35.0625 30.8125C34.4757 30.8125 34 30.3368 34 29.75C34 29.1632 34.4757 28.6875 35.0625 28.6875C35.6493 28.6875 36.125 29.1632 36.125 29.75Z" stroke="#5559F2" stroke-width="2" stroke-linecap="round" stroke-linejoin="round"/>
</svg>
