<?xml version="1.0" encoding="UTF-8"?>
<svg xmlns="http://www.w3.org/2000/svg" viewBox="0 0 318.21 325.18">
    <defs>
        <style>.i{fill:#f7f7f7;}.i,.j{fill-rule:evenodd;}.j{fill:#f26660;}</style>
    </defs>
    <g id="a"/>
    <g id="b">
        <g id="c">
            <g>
                <path class="i"
                      d="M159.91,21.58L74.23,168.92c-3.09,5.31-10.77,5.3-13.84-.02l-5.5-9.54c-1.43-2.48-1.43-5.54,.01-8.02L140.6,3.98c3.09-5.32,10.79-5.3,13.85,.04l5.49,9.56c1.42,2.48,1.42,5.53-.02,8Z"/>
                <path class="j"
                      d="M60.3,192.88l-34.35,59.07c-1.44,2.47-4.09,3.99-6.95,3.98l-11.02-.04c-6.15-.02-9.98-6.7-6.88-12.02l34.35-59.07c1.44-2.47,4.09-3.99,6.95-3.98l11.02,.04c6.15,.02,9.98,6.7,6.88,12.02Z"/>
                <path id="d" class="i"
                      d="M66.96,256.1l11.02,.04c2.86,.01,5.51-1.51,6.94-3.98L189.28,72.72c1.44-2.47,1.45-5.52,.02-8l-5.49-9.56c-3.06-5.34-10.76-5.36-13.85-.04L60.07,244.08c-3.09,5.32,.73,11.99,6.88,12.02Z"/>
                <path id="e" class="i"
                      d="M125.93,256.33l11.02,.04c2.86,.01,5.51-1.51,6.95-3.98L218.64,123.86c1.44-2.47,1.45-5.52,.02-8l-5.49-9.56c-3.06-5.34-10.76-5.36-13.85-.04L119.04,244.31c-3.09,5.32,.73,11.99,6.88,12.02Z"/>
                <path id="f" class="i"
                      d="M173.38,260.52l5.51,9.52c3.08,5.32,10.75,5.32,13.84,.01l65.39-112.45c3.09-5.32-.73-11.99-6.88-12.02l-11.02-.04c-2.86-.01-5.51,1.51-6.95,3.98l-59.88,102.97c-1.44,2.48-1.45,5.54,0,8.03Z"/>
                <g id="g">
                    <path class="j"
                          d="M222.1,321.2l19.5-33.54c1.44-2.47,1.45-5.52,.02-8l-5.49-9.56c-3.06-5.34-10.76-5.36-13.85-.04l-19.52,33.58c-1.44,2.48-1.45,5.54,0,8.03l5.51,9.52c3.08,5.32,10.75,5.32,13.84,.01Z"/>
                </g>
                <path id="h" class="i"
                      d="M310.26,145.77l-11-.08c-2.87-.02-5.53,1.5-6.97,3.98l-56.09,96.46c-3.09,5.32,.73,12,6.88,12.02l11.02,.04c2.86,.01,5.51-1.51,6.94-3.98l56.07-96.42c3.09-5.31-.71-11.97-6.86-12.02Z"/>
            </g>
        </g>
    </g>
</svg>