<svg width="145" height="38" viewBox="0 0 145 38" fill="none" xmlns="http://www.w3.org/2000/svg">
    <g filter="url(#filter0_dd_5683_166489)">
        <g clip-path="url(#clip0_5683_166489)">
            <rect x="3" y="2" width="32" height="32" rx="8" fill="url(#paint0_linear_5683_166489)"/>
            <path fill-rule="evenodd" clip-rule="evenodd" d="M18.671 8.45983L12.8734 18.4281C12.6643 18.7873 12.1446 18.7867 11.9368 18.4267L11.5647 17.7813C11.4679 17.6135 11.4679 17.4065 11.5654 17.2387L17.3644 7.2691C17.5735 6.90918 18.0945 6.91053 18.3016 7.27181L18.6731 7.91859C18.7692 8.08637 18.7692 8.29272 18.6717 8.45983H18.671Z" fill="white"/>
            <path fill-rule="evenodd" clip-rule="evenodd" d="M11.9308 20.0491L9.60643 24.0455C9.50899 24.2126 9.32967 24.3154 9.13615 24.3147L8.39046 24.312C7.97431 24.3107 7.71515 23.8587 7.92491 23.4988L10.2493 19.5024C10.3467 19.3353 10.526 19.2325 10.7195 19.2332L11.4652 19.2359C11.8814 19.2372 12.1405 19.6892 11.9308 20.0491Z" fill="white"/>
            <path fill-rule="evenodd" clip-rule="evenodd" d="M12.3821 24.3263L13.1278 24.329C13.3213 24.3297 13.5006 24.2269 13.5974 24.0598L20.6591 11.9198C20.7565 11.7527 20.7572 11.5463 20.6604 11.3785L20.2889 10.7318C20.0819 10.3705 19.5608 10.3691 19.3517 10.7291L11.9158 23.5131C11.7068 23.8731 11.9652 24.3243 12.3814 24.3263H12.3821Z" fill="white"/>
            <path fill-rule="evenodd" clip-rule="evenodd" d="M16.3713 24.3417L17.117 24.3445C17.3105 24.3451 17.4899 24.2423 17.5873 24.0752L22.6447 15.3795C22.7421 15.2124 22.7428 15.006 22.6461 14.8383L22.2746 14.1915C22.0675 13.8302 21.5465 13.8289 21.3374 14.1888L15.9051 23.5285C15.696 23.8885 15.9545 24.3397 16.3706 24.3417H16.3713Z" fill="white"/>
            <path fill-rule="evenodd" clip-rule="evenodd" d="M19.5824 24.6251L19.9553 25.2692C20.1637 25.6291 20.6827 25.6291 20.8918 25.2699L25.3165 17.6621C25.5256 17.3022 25.2671 16.8509 24.851 16.8489L24.1053 16.8462C23.9117 16.8455 23.7324 16.9484 23.635 17.1155L19.5831 24.0819C19.4857 24.2497 19.485 24.4567 19.5831 24.6251H19.5824Z" fill="white"/>
            <path fill-rule="evenodd" clip-rule="evenodd" d="M22.8791 28.7307L24.1986 26.4615C24.296 26.2944 24.2967 26.0881 24.1999 25.9203L23.8284 25.2735C23.6214 24.9122 23.1003 24.9109 22.8913 25.2708L21.5704 27.5427C21.473 27.7104 21.4723 27.9175 21.5704 28.0859L21.9432 28.73C22.1517 29.0899 22.6707 29.0899 22.8798 28.7307H22.8791Z" fill="white"/>
            <path fill-rule="evenodd" clip-rule="evenodd" d="M28.8452 16.8619L28.1009 16.8565C27.9067 16.8551 27.7267 16.9579 27.6292 17.1257L23.8338 23.6517C23.6247 24.0116 23.8832 24.4636 24.2994 24.4649L25.045 24.4676C25.2386 24.4683 25.4179 24.3655 25.5147 24.1984L29.3087 17.6751C29.5178 17.3158 29.2607 16.8653 28.8445 16.8619H28.8452Z" fill="white"/>
        </g>
    </g>
    <path fill-rule="evenodd" clip-rule="evenodd" d="M47.6225 12.9064C47.6225 12.6795 47.8061 12.496 48.033 12.496H49.9327C51.0114 12.496 51.7861 12.7103 52.233 13.1347C52.6827 13.5591 52.9012 14.1754 52.9012 15.0187C52.9012 15.8619 52.6827 16.4389 52.2316 16.8718C51.7833 17.3004 51.01 17.5189 49.9327 17.5189H48.033C47.8061 17.5189 47.6225 17.3354 47.6225 17.1085V12.9078V12.9064ZM50.1022 10.1919H45.4105C45.1835 10.1919 45 10.3754 45 10.6023V25.4411C45 25.668 45.1835 25.8515 45.4105 25.8515H47.2121C47.439 25.8515 47.6225 25.668 47.6225 25.4411V20.232C47.6225 20.0051 47.8061 19.8216 48.033 19.8216H50.1022C51.8379 19.8216 53.194 19.3958 54.1341 18.5554C55.0839 17.7052 55.5658 16.5146 55.5658 15.0173C55.5658 13.5199 55.1007 12.3489 54.1831 11.4847C53.2711 10.6261 51.8982 10.1919 50.1022 10.1919Z" fill="white"/>
    <path fill-rule="evenodd" clip-rule="evenodd" d="M66.6054 15.1028C66.6054 16.8382 65.6696 17.6464 63.6578 17.6464H61.5887C61.3617 17.6464 61.1782 17.4629 61.1782 17.236V12.9709C61.1782 12.744 61.3617 12.5605 61.5887 12.5605H63.6578C65.6682 12.5605 66.6054 13.3687 66.6054 15.1042V15.1028ZM68.1604 18.1717C68.8973 17.3663 69.27 16.2989 69.27 14.9977C69.27 13.562 68.8049 12.3882 67.8901 11.51C66.978 10.636 65.6121 10.1934 63.8274 10.1934H58.9661C58.7392 10.1934 58.5557 10.3768 58.5557 10.6038V25.4426C58.5557 25.6695 58.7392 25.853 58.9661 25.853H60.7677C60.9947 25.853 61.1782 25.6695 61.1782 25.4426V20.148C61.1782 19.9211 61.3617 19.7376 61.5887 19.7376H62.5217C62.6618 19.7376 62.7921 19.8091 62.8677 19.9267L66.534 25.6639C66.6096 25.7816 66.7399 25.853 66.88 25.853H68.9099C69.2378 25.853 69.4325 25.4888 69.2532 25.2157L65.8461 20.0528C65.6962 19.8259 65.8069 19.5177 66.0674 19.4379C66.9304 19.1745 67.6337 18.7501 68.1618 18.1703" fill="white"/>
    <path d="M74.5802 10.1919H72.7786C72.5519 10.1919 72.3682 10.3756 72.3682 10.6023V25.4425C72.3682 25.6692 72.5519 25.8529 72.7786 25.8529H74.5802C74.8069 25.8529 74.9907 25.6692 74.9907 25.4425V10.6023C74.9907 10.3756 74.8069 10.1919 74.5802 10.1919Z" fill="white"/>
    <path fill-rule="evenodd" clip-rule="evenodd" d="M86.6857 17.743C86.0903 17.4558 85.2932 17.1491 84.3153 16.8325C83.5378 16.5818 82.9214 16.3549 82.4829 16.156C82.0794 15.9739 81.7376 15.719 81.4672 15.3982C81.2151 15.0985 81.0918 14.7091 81.0918 14.2091C81.0918 13.5717 81.2823 13.0983 81.6718 12.7607C82.0794 12.4092 82.6174 12.2397 83.3164 12.2397C84.0842 12.2397 84.6683 12.433 85.1012 12.8294C85.4515 13.1501 85.691 13.5003 85.8241 13.8925C85.8886 14.083 86.0763 14.2048 86.2766 14.1964L88.1468 14.1236C88.4326 14.1124 88.6372 13.8393 88.5699 13.5605C88.3374 12.6095 87.8232 11.7999 87.0401 11.1514C86.1155 10.388 84.8631 10 83.3164 10C82.3218 10 81.4406 10.1751 80.6967 10.5211C79.9374 10.874 79.3462 11.3811 78.9357 12.0296C78.5267 12.6767 78.3193 13.4317 78.3193 14.2735C78.3193 15.2498 78.5449 16.0552 78.9904 16.6644C79.4275 17.2611 79.964 17.715 80.5846 18.0133C81.173 18.2976 81.9547 18.5988 82.913 18.9125C83.6975 19.1605 84.3251 19.3944 84.7818 19.6073C85.2007 19.8048 85.5579 20.0779 85.8423 20.4197C86.1099 20.7404 86.2402 21.155 86.2402 21.6859C86.2402 22.305 86.0511 22.7938 85.6616 23.1832C85.2777 23.567 84.7034 23.7603 83.9511 23.7603C83.3627 23.7603 82.8583 23.644 82.4549 23.4129C82.0472 23.1818 81.732 22.8849 81.5163 22.5333C81.365 22.2868 81.2571 22.0361 81.1912 21.7825C81.1394 21.578 80.9475 21.4422 80.7373 21.4464L78.8923 21.4898C78.6121 21.4968 78.4048 21.7545 78.458 22.0291C78.5883 22.6888 78.8517 23.2925 79.2439 23.8303C79.7371 24.5055 80.4039 25.0419 81.2249 25.4257C82.0388 25.8067 82.9774 26 84.0155 26C85.0536 26 86.009 25.7927 86.7515 25.3837C87.4996 24.9719 88.067 24.427 88.4368 23.7631C88.8039 23.1048 88.9902 22.3834 88.9902 21.6201C88.9902 20.6018 88.7619 19.7656 88.3094 19.1367C87.8667 18.5176 87.3189 18.0483 86.6815 17.7416" fill="white"/>
    <path fill-rule="evenodd" clip-rule="evenodd" d="M105.014 10.7006L100.583 21.3542C100.443 21.6904 99.9668 21.6918 99.8253 21.357L95.32 10.6992C95.2555 10.5465 95.107 10.4485 94.9417 10.4485H92.7366C92.5097 10.4485 92.3262 10.632 92.3262 10.8589V25.4428C92.3262 25.6697 92.5097 25.8532 92.7366 25.8532H94.5382C94.7652 25.8532 94.9487 25.6697 94.9487 25.4428V17.7068C94.9487 17.2558 95.5721 17.1339 95.7402 17.5528L98.982 25.5969C99.045 25.7523 99.1949 25.8546 99.363 25.8546H100.994C101.162 25.8546 101.313 25.7523 101.375 25.5969L104.594 17.5415C104.762 17.1213 105.387 17.2418 105.387 17.6942V25.4442C105.387 25.6711 105.571 25.8546 105.798 25.8546H107.598C107.825 25.8546 108.008 25.6711 108.008 25.4442V10.8603C108.008 10.6334 107.825 10.4499 107.598 10.4499H105.393C105.227 10.4499 105.077 10.5493 105.013 10.7034L105.014 10.7006Z" fill="white"/>
    <defs>
        <filter id="filter0_dd_5683_166489" x="0" y="0" width="38" height="38" filterUnits="userSpaceOnUse" color-interpolation-filters="sRGB">
            <feFlood flood-opacity="0" result="BackgroundImageFix"/>
            <feColorMatrix in="SourceAlpha" type="matrix" values="0 0 0 0 0 0 0 0 0 0 0 0 0 0 0 0 0 0 127 0" result="hardAlpha"/>
            <feOffset dy="1"/>
            <feGaussianBlur stdDeviation="1"/>
            <feColorMatrix type="matrix" values="0 0 0 0 0.0627451 0 0 0 0 0.0941176 0 0 0 0 0.156863 0 0 0 0.06 0"/>
            <feBlend mode="normal" in2="BackgroundImageFix" result="effect1_dropShadow_5683_166489"/>
            <feColorMatrix in="SourceAlpha" type="matrix" values="0 0 0 0 0 0 0 0 0 0 0 0 0 0 0 0 0 0 127 0" result="hardAlpha"/>
            <feOffset dy="1"/>
            <feGaussianBlur stdDeviation="1.5"/>
            <feColorMatrix type="matrix" values="0 0 0 0 0.0627451 0 0 0 0 0.0941176 0 0 0 0 0.156863 0 0 0 0.1 0"/>
            <feBlend mode="normal" in2="effect1_dropShadow_5683_166489" result="effect2_dropShadow_5683_166489"/>
            <feBlend mode="normal" in="SourceGraphic" in2="effect2_dropShadow_5683_166489" result="shape"/>
        </filter>
        <linearGradient id="paint0_linear_5683_166489" x1="3" y1="2" x2="35" y2="2" gradientUnits="userSpaceOnUse">
            <stop stop-color="#2C2FE0"/>
            <stop offset="1" stop-color="#5559F2"/>
        </linearGradient>
        <clipPath id="clip0_5683_166489">
            <rect x="3" y="2" width="32" height="32" rx="8" fill="white"/>
        </clipPath>
    </defs>
</svg>
